<svg id="Ebene_1" data-name="Ebene 1" xmlns="http://www.w3.org/2000/svg" xmlns:xlink="http://www.w3.org/1999/xlink" viewBox="0 0 135 150"><defs><style>.cls-1{fill:#ffc20e;}.cls-2{fill:#f58220;}.cls-3{fill:#d7182a;}.cls-4{fill:#00005f;}.cls-5{fill:#fff;}.cls-6{fill:url(#linear-gradient);}.cls-7{fill:url(#linear-gradient-2);}.cls-8{fill:url(#linear-gradient-3);}.cls-9{fill:url(#linear-gradient-4);}.cls-10{fill:url(#linear-gradient-5);}.cls-11{fill:url(#linear-gradient-6);}</style><linearGradient id="linear-gradient" x1="54.75" y1="83.56" x2="54.75" y2="26.02" gradientUnits="userSpaceOnUse"><stop offset="0" stop-color="#1482af"/><stop offset="0.02" stop-color="#3898bf"/><stop offset="0.05" stop-color="#6eb9d8"/><stop offset="0.08" stop-color="#96d1ea"/><stop offset="0.11" stop-color="#aee0f5"/><stop offset="0.12" stop-color="#b7e5f9"/><stop offset="0.2" stop-color="#97daf6"/><stop offset="0.33" stop-color="#67c9f2"/><stop offset="0.4" stop-color="#55c3f0"/><stop offset="0.6" stop-color="#55c3f0"/><stop offset="0.67" stop-color="#67c9f2"/><stop offset="0.8" stop-color="#97daf6"/><stop offset="0.88" stop-color="#b7e5f9"/><stop offset="0.89" stop-color="#aee0f5"/><stop offset="0.92" stop-color="#96d1ea"/><stop offset="0.95" stop-color="#6eb9d8"/><stop offset="0.98" stop-color="#3898bf"/><stop offset="1" stop-color="#1482af"/></linearGradient><linearGradient id="linear-gradient-2" x1="68.59" y1="83.44" x2="68.59" y2="25.94" xlink:href="#linear-gradient"/><linearGradient id="linear-gradient-3" x1="42.57" y1="83.69" x2="42.57" y2="26.1" xlink:href="#linear-gradient"/><linearGradient id="linear-gradient-4" x1="78.39" y1="52.57" x2="95.17" y2="45.62" gradientUnits="userSpaceOnUse"><stop offset="0.2" stop-color="#55c3f0"/><stop offset="0.32" stop-color="#67c9f2"/><stop offset="0.55" stop-color="#97daf6"/><stop offset="0.69" stop-color="#b7e5f9"/><stop offset="0.73" stop-color="#aee0f5"/><stop offset="0.79" stop-color="#96d1ea"/><stop offset="0.86" stop-color="#6eb9d8"/><stop offset="0.95" stop-color="#3898bf"/><stop offset="1" stop-color="#1482af"/></linearGradient><linearGradient id="linear-gradient-5" x1="74.74" y1="67.19" x2="99.77" y2="56.82" gradientUnits="userSpaceOnUse"><stop offset="0.3" stop-color="#55c3f0"/><stop offset="0.41" stop-color="#67c9f2"/><stop offset="0.63" stop-color="#97daf6"/><stop offset="0.76" stop-color="#b7e5f9"/><stop offset="0.79" stop-color="#aee0f5"/><stop offset="0.83" stop-color="#96d1ea"/><stop offset="0.89" stop-color="#6eb9d8"/><stop offset="0.96" stop-color="#3898bf"/><stop offset="1" stop-color="#1482af"/></linearGradient><linearGradient id="linear-gradient-6" x1="71.02" y1="81.88" x2="104.26" y2="68.11" gradientUnits="userSpaceOnUse"><stop offset="0" stop-color="#73cdf3"/><stop offset="0.12" stop-color="#62c7f1"/><stop offset="0.24" stop-color="#58c4f0"/><stop offset="0.4" stop-color="#55c3f0"/><stop offset="0.5" stop-color="#67c9f2"/><stop offset="0.69" stop-color="#97daf6"/><stop offset="0.81" stop-color="#b7e5f9"/><stop offset="0.83" stop-color="#aee0f5"/><stop offset="0.87" stop-color="#96d1ea"/><stop offset="0.92" stop-color="#6eb9d8"/><stop offset="0.97" stop-color="#3898bf"/><stop offset="1" stop-color="#1482af"/></linearGradient></defs><rect class="cls-1" x="5" width="125" height="150" rx="5"/><path class="cls-2" d="M14.38,5.87H120.63A3.37,3.37,0,0,1,124,9.25v131.5a3.37,3.37,0,0,1-3.37,3.37H14.38A3.38,3.38,0,0,1,11,140.75V9.25A3.38,3.38,0,0,1,14.38,5.87Z"/><rect class="cls-3" x="15.44" y="10.19" width="104.13" height="129.63" rx="2.5"/><path class="cls-4" d="M20.88,13.62h93.25A1.88,1.88,0,0,1,116,15.5v119a1.87,1.87,0,0,1-1.87,1.87H20.88A1.88,1.88,0,0,1,19,134.5V15.5A1.88,1.88,0,0,1,20.88,13.62Z"/><path class="cls-5" d="M44.79,116.45c-.28-1.2-.82-3.35-1.09-4.24H35.41c-.28.89-.81,3-1.09,4.24H26.87c3.16-10,4.6-14.17,8.13-23h9.11c3.53,8.84,5,13,8.13,23Zm-8.34-9.2h6.21c-.87-3.08-2.52-8.2-3.1-9.66C39,99.05,37.32,104.17,36.45,107.25Z"/><path class="cls-5" d="M60.42,116.45c-3.87,0-6-2.2-6-6.21V93.44h7v15.47c0,1.93.53,2.44,2.59,2.44h6.76l1,5.1Z"/><rect class="cls-5" x="99.92" y="93.44" width="6.96" height="23.02"/><path class="cls-5" d="M74.53,116.45v-23h9.62c7.07,0,12,2.88,12,11.32,0,8.25-4,11.69-11.71,11.69Zm7-5h2c4.26,0,6-1.91,6-6.72,0-4.52-2.06-6.35-6.21-6.35H81.49Z"/><path class="cls-6" d="M64.82,26c-4.31,0-6,3-7.67,7.72L42.45,77c-1.27,3.72-2.86,6-5.54,6.3v.23h7.63c4.31,0,6.05-3,7.67-7.72l14.7-43.29c1.26-3.72,3-6,5.69-6.29V26Z"/><path class="cls-7" d="M78.65,25.94c-4.32,0-6.05,3-7.67,7.72L56.28,76.91c-1.26,3.72-2.86,6-5.54,6.29v.24h7.64c4.31,0,6.05-3,7.66-7.72l14.7-43.25c1.26-3.72,3-6,5.69-6.3v-.23Z"/><path class="cls-8" d="M51,26.1c-4.31,0-6,3-7.67,7.72l-17,49.87H30.7c4.31,0,6.05-3,7.66-7.72L53.09,32.63c1.26-3.72,3-6,5.68-6.29V26.1Z"/><path class="cls-9" d="M95,46.17c-1.6-3.26-3.32-3.67-6.34-3.67H80.94l-3,8.92H93c2.16,0,3.91.28,5.13,1.9h.27S95.34,47,95,46.17Z"/><path class="cls-10" d="M100.41,59.05c-1.5-3.16-3.31-3.67-6.34-3.67H76.57l-3,8.92H98.29c2.23,0,3.88.33,5.13,2h.26S100.79,59.84,100.41,59.05Z"/><path class="cls-11" d="M106,72.37c-1.57-3.51-3.51-4-6.54-4H72.17l-2.51,7.39c-.19.53-.37,1-.56,1.53h34.56c2,0,3.67.36,5,2h.27S106.19,72.77,106,72.37Z"/></svg>